<svg xmlns="http://www.w3.org/2000/svg" width="1200" height="630" viewBox="0 0 1200 630"><rect width="1200" height="630" fill="#0F1014"/><g fill="#ECECEA"><path fill-rule="evenodd" d="M46 6 L94 6 L94 54 Q94 94 54 94 L6 94 L6 46 Q6 6 46 6 Z M46 17 L83 17 L83 54 Q83 83 54 83 L17 83 L17 46 Q17 17 46 17 Z" transform="translate(90 205) scale(2.2)"/><path d="M27 28 H37 V74 H27 Z M47 28 H57 V74 H47 Z M47 28 H73 V38 H47 Z M27 45 H72 V55 H27 Z" transform="translate(90 205) scale(2.2)"/></g><text x="360" y="300" fill="#FFF" font-family="Roboto, system-ui, sans-serif" font-size="96" font-weight="800" letter-spacing="-3">Hexfield</text><text x="362" y="368" fill="#C8F031" font-family="Roboto, system-ui, sans-serif" font-size="32" font-weight="500">Smart Digital Systems.</text><text x="362" y="416" fill="rgba(255,255,255,0.7)" font-family="Roboto, system-ui, sans-serif" font-size="22" font-weight="400">Built by one expert, for your entire business.</text><text x="362" y="464" fill="rgba(255,255,255,0.55)" font-family="Roboto, system-ui, sans-serif" font-size="20" font-weight="400">From Adelaide to the world.</text></svg>